<svg width="48" height="48" viewBox="0 0 48 48" fill="none" xmlns="http://www.w3.org/2000/svg">
<g filter="url(#filter0_d_41_93)">
<rect x="4" width="40" height="40" rx="10" fill="#FFCFE1"/>
<g filter="url(#filter1_d_41_93)">
<path d="M30.5882 7.99996H22.663L24.0964 10.5788L20 14.1082V22.6694H22.663V15.8729L26.1053 12.6732L28.3868 15.2222L30.5882 7.99996Z" fill="#FFFDEB"/>
</g>
<g filter="url(#filter2_d_41_93)">
<path d="M20.623 25.9128V28.5964H19.873V25.9128H20.623ZM19.0059 26.1062C19 27.571 18.1855 28.3679 16.498 28.7078L16.2344 28.1042C17.5498 27.8611 18.0977 27.3513 18.1797 26.7097H16.5215V26.1062H19.0059ZM20.623 28.8074V30.2488H17.8105V30.6121H20.7695V31.1921H17.0547V29.7097H19.8672V29.3875H17.043V28.8074H20.623ZM24.6848 26.4285V27.0203H23.6066C23.6184 27.5447 24.0051 28.0837 24.8547 28.2976L24.5266 28.8718C23.9113 28.7166 23.4836 28.3826 23.2434 27.9578C23.0061 28.4265 22.5783 28.7986 21.9543 28.9714L21.6027 28.3796C22.4523 28.1599 22.8508 27.5974 22.8625 27.0203H21.7902V26.4285H22.8625V25.8894H23.6184V26.4285H24.6848ZM25.8742 25.9128V27.1082H26.5949V27.7234H25.8742V28.9539H25.1242V25.9128H25.8742ZM25.9387 29.1824V29.7683H24.5852C24.7199 30.1609 25.2443 30.5417 26.173 30.6648L25.9094 31.2332C25.051 31.1189 24.4475 30.7761 24.1398 30.3191C23.8352 30.7732 23.2346 31.1072 22.3879 31.2214L22.1184 30.6531C23.0559 30.5388 23.5744 30.1697 23.7121 29.7683H22.3469V29.1824H25.9387ZM31.6117 25.9128V31.2449H30.8559V25.9128H31.6117ZM30.0121 26.4695C30.0121 28.0867 29.4438 29.4285 27.5395 30.3308L27.1469 29.7332C28.5238 29.0828 29.1303 28.239 29.2504 27.0554H27.434V26.4695H30.0121Z" fill="#FFFDEB"/>
</g>
</g>
<defs>
<filter id="filter0_d_41_93" x="0" y="0" width="48" height="48" filterUnits="userSpaceOnUse" color-interpolation-filters="sRGB">
<feFlood flood-opacity="0" result="BackgroundImageFix"/>
<feColorMatrix in="SourceAlpha" type="matrix" values="0 0 0 0 0 0 0 0 0 0 0 0 0 0 0 0 0 0 127 0" result="hardAlpha"/>
<feOffset dy="4"/>
<feGaussianBlur stdDeviation="2"/>
<feComposite in2="hardAlpha" operator="out"/>
<feColorMatrix type="matrix" values="0 0 0 0 0 0 0 0 0 0 0 0 0 0 0 0 0 0 0.25 0"/>
<feBlend mode="normal" in2="BackgroundImageFix" result="effect1_dropShadow_41_93"/>
<feBlend mode="normal" in="SourceGraphic" in2="effect1_dropShadow_41_93" result="shape"/>
</filter>
<filter id="filter1_d_41_93" x="19" y="6.8" width="12.5883" height="16.6694" filterUnits="userSpaceOnUse" color-interpolation-filters="sRGB">
<feFlood flood-opacity="0" result="BackgroundImageFix"/>
<feColorMatrix in="SourceAlpha" type="matrix" values="0 0 0 0 0 0 0 0 0 0 0 0 0 0 0 0 0 0 127 0" result="hardAlpha"/>
<feOffset dy="-0.2"/>
<feGaussianBlur stdDeviation="0.5"/>
<feComposite in2="hardAlpha" operator="out"/>
<feColorMatrix type="matrix" values="0 0 0 0 0 0 0 0 0 0 0 0 0 0 0 0 0 0 0.25 0"/>
<feBlend mode="normal" in2="BackgroundImageFix" result="effect1_dropShadow_41_93"/>
<feBlend mode="normal" in="SourceGraphic" in2="effect1_dropShadow_41_93" result="shape"/>
</filter>
<filter id="filter2_d_41_93" x="15.2344" y="24.9894" width="17.3773" height="7.35547" filterUnits="userSpaceOnUse" color-interpolation-filters="sRGB">
<feFlood flood-opacity="0" result="BackgroundImageFix"/>
<feColorMatrix in="SourceAlpha" type="matrix" values="0 0 0 0 0 0 0 0 0 0 0 0 0 0 0 0 0 0 127 0" result="hardAlpha"/>
<feOffset dy="0.1"/>
<feGaussianBlur stdDeviation="0.5"/>
<feComposite in2="hardAlpha" operator="out"/>
<feColorMatrix type="matrix" values="0 0 0 0 0 0 0 0 0 0 0 0 0 0 0 0 0 0 0.25 0"/>
<feBlend mode="normal" in2="BackgroundImageFix" result="effect1_dropShadow_41_93"/>
<feBlend mode="normal" in="SourceGraphic" in2="effect1_dropShadow_41_93" result="shape"/>
</filter>
</defs>
</svg>
